<svg width="141" height="94" viewBox="0 0 141 94" fill="none" xmlns="http://www.w3.org/2000/svg">
<path d="M101.754 41.73C100.572 41.178 99.876 40.008 99.876 38.79V35.544H102.78V36.426H100.746V38.796C100.74 40.206 102.059 41.358 103.494 41.136L103.757 41.97C103.087 42.09 102.456 42.054 101.754 41.73ZM86.61 41.73C85.428 41.178 84.7326 40.008 84.7326 38.79V35.544H87.6366V36.426H85.602V38.796C85.596 40.206 86.9154 41.358 88.35 41.136L88.6134 41.97C87.942 42.09 87.312 42.054 86.61 41.73ZM110.604 41.154C111.012 41.154 111.348 40.818 111.348 40.41C111.348 40.236 111.288 40.074 111.186 39.942L110.063 38.616L109.727 38.22C109.488 37.938 109.338 37.572 109.338 37.17C109.338 36.276 110.063 35.544 110.957 35.544H111.563V36.426H110.957C110.549 36.426 110.213 36.762 110.213 37.17C110.213 37.344 110.274 37.512 110.376 37.638L111.612 39.102L111.835 39.366C112.074 39.648 112.224 40.014 112.224 40.416C112.224 41.31 111.498 42.036 110.604 42.036C110.178 42.03 109.746 41.94 109.285 41.796L109.548 40.956L109.848 41.052C110.1 41.124 110.358 41.154 110.604 41.154ZM121.158 35.448V42.03H120.283V35.448H121.158ZM106.824 35.448V42.03H105.948V35.448H106.824ZM81.09 41.154C81.498 41.154 81.834 40.818 81.834 40.41C81.834 40.236 81.7734 40.074 81.6714 39.942L80.5494 38.616L80.2128 38.22C79.9734 37.938 79.8234 37.572 79.8234 37.17C79.8234 36.276 80.5494 35.544 81.4434 35.544H82.0494V36.426H81.4434C81.0354 36.426 80.6994 36.762 80.6994 37.17C80.6994 37.344 80.7594 37.512 80.8614 37.638L82.098 39.102L82.32 39.366C82.5594 39.648 82.7094 40.014 82.7094 40.416C82.7094 41.31 81.984 42.036 81.09 42.036C80.6634 42.03 80.232 41.94 79.77 41.796L80.034 40.956L80.334 41.052C80.5866 41.124 80.844 41.154 81.09 41.154ZM126.57 38.442C126.84 38.592 127.08 38.778 127.29 38.982L129.827 42.03H128.682L126.642 39.582C126.215 39.168 125.628 38.928 125.028 38.922L124.848 38.928V42.024H123.965V35.538H124.848V38.046L125.01 38.04C125.562 38.004 126.097 37.77 126.493 37.386L128.023 35.55H129.168L127.14 37.98C126.978 38.154 126.78 38.31 126.57 38.442ZM132.744 41.736C131.117 40.98 130.415 39.042 131.172 37.416C132.156 35.31 134.856 34.968 136.398 36.48L140.67 41.526L140.124 42.24L135.756 37.08C134.635 35.994 132.678 36.276 131.97 37.788C131.07 39.714 132.942 41.646 134.833 41.046L135.133 40.95L135.396 41.79C134.46 42.084 133.667 42.162 132.744 41.736ZM91.296 41.736C89.67 40.98 88.9674 39.042 89.724 37.416C90.708 35.31 93.408 34.968 94.95 36.48L99.222 41.526L98.676 42.24L94.308 37.08C93.1866 35.994 91.23 36.276 90.522 37.788C89.622 39.714 91.494 41.646 93.3846 41.046L93.6846 40.95L93.948 41.79C93.012 42.084 92.22 42.162 91.296 41.736ZM101.688 32.748C100.505 32.196 99.809 31.026 99.809 29.808V26.562H102.713V27.444H100.679V29.814C100.673 31.224 101.993 32.376 103.427 32.154L103.691 32.988C103.02 33.108 102.39 33.078 101.688 32.748ZM95.994 32.172C96.402 32.172 96.738 31.836 96.738 31.428C96.738 31.254 96.6774 31.086 96.5754 30.96L95.4534 29.634L95.1168 29.238C94.8774 28.956 94.7274 28.59 94.7274 28.188C94.7274 27.294 95.4534 26.562 96.3474 26.562H96.9534V27.444H96.3474C95.9394 27.444 95.6034 27.78 95.6034 28.188C95.6034 28.362 95.6634 28.53 95.7654 28.656L97.002 30.12L97.224 30.384C97.4634 30.666 97.6134 31.038 97.6134 31.434C97.6134 32.328 96.888 33.054 95.994 33.054C95.5674 33.048 95.136 32.958 94.674 32.808L94.938 31.968L95.238 32.064C95.49 32.142 95.742 32.178 95.994 32.172ZM106.824 26.562V33.048H105.948V26.562H106.824ZM81.642 32.748C80.0154 31.992 79.3134 30.054 80.07 28.428C81.048 26.334 83.748 25.974 85.284 27.48L85.488 27.678L83.058 30.6L82.4826 29.916L84.258 27.786C83.064 27.048 81.468 27.498 80.862 28.8C79.962 30.726 81.8346 32.658 83.7246 32.058L84.0246 31.962L84.2886 32.802C83.3634 33.102 82.5654 33.18 81.642 32.748ZM88.896 32.748C87.27 31.992 86.5674 30.054 87.324 28.428C87.888 27.222 89.022 26.592 90.174 26.556H90.348C91.14 26.58 91.926 26.88 92.538 27.48L92.742 27.678L90.312 30.6L89.7366 29.916L91.512 27.786C90.318 27.048 88.7226 27.498 88.116 28.8C87.216 30.726 89.0886 32.658 90.9786 32.058L91.2786 31.962L91.5426 32.802C90.612 33.102 89.82 33.18 88.896 32.748ZM116.124 41.73C114.942 41.178 114.246 40.008 114.246 38.79V35.544H117.15V36.426H115.115V38.796C115.109 40.206 116.429 41.358 117.863 41.136L118.127 41.97C117.456 42.09 116.826 42.054 116.124 41.73ZM66.246 51.708C66.246 50.514 65.76 49.428 64.98 48.648L55.542 38.688C53.934 37.062 52.926 34.818 52.926 32.34C52.926 27.354 56.97 23.31 61.956 23.31C66.942 23.31 70.986 27.354 70.986 32.34V34.32H66.288V32.34C66.288 29.946 64.35 28.008 61.956 28.008C59.562 28.008 57.624 29.946 57.624 32.34C57.624 33.534 58.134 34.644 58.926 35.436L68.364 45.396C69.522 46.578 70.356 48.0654 70.722 49.734H102.042V50.2254H70.818C70.896 50.7114 70.938 51.2034 70.938 51.7128C70.938 56.6994 66.894 60.7434 61.908 60.7434C56.922 60.7434 52.878 56.6994 52.878 51.7128V49.7334H57.57V51.7128C57.57 54.1068 59.508 56.0454 61.902 56.0454C64.296 56.046 66.246 54.102 66.246 51.708ZM0 49.7346H31.278C31.65 48.066 32.478 46.578 33.636 45.3966L36.828 42.0246L33.678 38.6886C32.07 37.0626 31.062 34.8186 31.062 32.3406C31.062 27.4386 34.968 23.4486 39.84 23.3166V-9H40.332V23.31C45.204 23.442 49.116 27.432 49.116 32.334V34.314H44.418V32.334C44.418 29.94 42.48 28.002 40.086 28.002C37.692 28.002 35.754 29.94 35.754 32.334C35.754 33.528 36.264 34.638 37.062 35.43L43.308 42.018L37.02 48.648C36.24 49.4346 35.754 50.5134 35.754 51.708C35.754 54.102 37.692 56.0406 40.086 56.0406C42.48 56.0406 44.418 54.1026 44.418 51.708V49.728H49.116V51.708C49.116 56.61 45.21 60.6 40.338 60.7326V93.0426H39.846V60.7326C34.974 60.606 31.062 56.61 31.062 51.708C31.062 51.204 31.104 50.706 31.182 50.2206H0V49.7346Z" fill="white"/>
</svg>
